<svg xmlns="http://www.w3.org/2000/svg" xmlns:xlink="http://www.w3.org/1999/xlink" contentStyleType="text/css" data-diagram-type="CLASS" height="1116px" preserveAspectRatio="none" style="width:1938px;height:1116px;background:#FFFFFF;" version="1.1" viewBox="0 0 1938 1116" width="1938px" zoomAndPan="magnify"><title>Peer Rated Database Design UML</title><defs/><g><g class="title" data-source-line="1"><text fill="#000000" font-family="sans-serif" font-size="14" font-weight="bold" lengthAdjust="spacing" textLength="265.0498" x="829.8201" y="22.9951">Peer Rated Database Design UML</text></g><!--class KEY--><g class="entity" data-qualified-name="KEY" data-source-line="3" id="ent0002"><rect fill="#F0F8FF" height="96.8906" rx="2.5" ry="2.5" style="stroke:#0000FF;stroke-width:0.5;" width="93.9971" x="1453.5" y="44.2969"/><ellipse cx="1484.4385" cy="60.2969" fill="#ADD1B2" rx="11" ry="11" style="stroke:#181818;stroke-width:1;"/><path d="M1487.4073,65.9375 Q1486.8292,66.2344 1486.1885,66.375 Q1485.5479,66.5313 1484.8448,66.5313 Q1482.3448,66.5313 1481.0167,64.8906 Q1479.7042,63.2344 1479.7042,60.1094 Q1479.7042,56.9844 1481.0167,55.3281 Q1482.3448,53.6719 1484.8448,53.6719 Q1485.5479,53.6719 1486.1885,53.8281 Q1486.8448,53.9844 1487.4073,54.2813 L1487.4073,57 Q1486.7823,56.4219 1486.1885,56.1563 Q1485.5948,55.875 1484.9698,55.875 Q1483.626,55.875 1482.9385,56.9531 Q1482.251,58.0156 1482.251,60.1094 Q1482.251,62.2031 1482.9385,63.2813 Q1483.626,64.3438 1484.9698,64.3438 Q1485.5948,64.3438 1486.1885,64.0781 Q1486.7823,63.7969 1487.4073,63.2188 L1487.4073,65.9375 Z " fill="#000000"/><text fill="#000000" font-family="sans-serif" font-size="14" lengthAdjust="spacing" textLength="26.5781" x="1501.9804" y="65.1436">KEY</text><line style="stroke:#0000FF;stroke-width:0.5;" x1="1454.5" x2="1546.4971" y1="76.2969" y2="76.2969"/><g data-visibility-modifier="PRIVATE_FIELD"><rect fill="none" height="6" style="stroke:#C82930;stroke-width:1;" width="6" x="1461.5" y="86.9453"/></g><text fill="#000000" font-family="sans-serif" font-size="14" lengthAdjust="spacing" textLength="49.499" x="1473.5" y="93.292">private</text><g data-visibility-modifier="PUBLIC_FIELD"><ellipse cx="1464.5" cy="106.2422" fill="none" rx="3" ry="3" style="stroke:#038048;stroke-width:1;"/></g><text fill="#000000" font-family="sans-serif" font-size="14" lengthAdjust="spacing" textLength="42.123" x="1473.5" y="109.5889">public</text><g data-visibility-modifier="PROTECTED_FIELD"><polygon fill="none" points="1464.5,117.5391,1468.5,121.5391,1464.5,125.5391,1460.5,121.5391" style="stroke:#B38D22;stroke-width:1;"/></g><text fill="#000000" font-family="sans-serif" font-size="14" lengthAdjust="spacing" textLength="67.9971" x="1473.5" y="125.8857">protected</text><line style="stroke:#0000FF;stroke-width:0.5;" x1="1454.5" x2="1546.4971" y1="133.1875" y2="133.1875"/></g><!--class User--><g class="entity" data-qualified-name="User" data-source-line="9" id="ent0003"><rect fill="#F1F1F1" height="162.0781" rx="2.5" ry="2.5" style="stroke:#181818;stroke-width:0.5;" width="186.5352" x="450.5" y="388.1869"/><ellipse cx="523.5625" cy="404.1869" fill="#ADD1B2" rx="11" ry="11" style="stroke:#181818;stroke-width:1;"/><path d="M527.6719,410.1869 L519.9531,410.1869 L519.9531,397.7962 L527.6719,397.7962 L527.6719,399.9525 L522.4063,399.9525 L522.4063,402.6244 L527.1719,402.6244 L527.1719,404.7806 L522.4063,404.7806 L522.4063,408.0306 L527.6719,408.0306 L527.6719,410.1869 Z " fill="#000000"/><text fill="#000000" font-family="sans-serif" font-size="14" lengthAdjust="spacing" textLength="31.9102" x="544.0625" y="409.0336">User</text><line style="stroke:#181818;stroke-width:0.5;" x1="451.5" x2="636.0352" y1="420.1869" y2="420.1869"/><g data-visibility-modifier="PRIVATE_FIELD"><rect fill="none" height="6" style="stroke:#C82930;stroke-width:1;" width="6" x="458.5" y="451.1322"/></g><text fill="#000000" font-family="sans-serif" font-size="14" lengthAdjust="spacing" textLength="110.5576" x="470.5" y="457.4789">UserID : integer</text><line style="stroke:#181818;stroke-width:1;stroke-dasharray:1,2;" x1="451.5" x2="534.9561" y1="436.3353" y2="436.3353"/><text fill="#000000" font-family="sans-serif" font-size="14" lengthAdjust="spacing" textLength="17.623" x="534.9561" y="440.682">PK</text><line style="stroke:#181818;stroke-width:1;stroke-dasharray:1,2;" x1="552.5791" x2="636.0352" y1="436.3353" y2="436.3353"/><g data-visibility-modifier="PUBLIC_FIELD"><ellipse cx="461.5" cy="490.7259" fill="none" rx="3" ry="3" style="stroke:#038048;stroke-width:1;"/></g><text fill="#000000" font-family="sans-serif" font-size="14" lengthAdjust="spacing" textLength="117.3799" x="470.5" y="494.0726">Comments : text</text><g data-visibility-modifier="PUBLIC_FIELD"><ellipse cx="461.5" cy="507.0228" fill="none" rx="3" ry="3" style="stroke:#038048;stroke-width:1;"/></g><text fill="#000000" font-family="sans-serif" font-size="14" lengthAdjust="spacing" textLength="113.1074" x="470.5" y="510.3695">Username : text</text><g data-visibility-modifier="PRIVATE_FIELD"><rect fill="none" height="6" style="stroke:#C82930;stroke-width:1;" width="6" x="458.5" y="520.3197"/></g><text fill="#000000" font-family="sans-serif" font-size="14" lengthAdjust="spacing" textLength="80.3359" x="470.5" y="526.6664">Email : text</text><g data-visibility-modifier="PROTECTED_FIELD"><polygon fill="none" points="461.5,534.6166,465.5,538.6166,461.5,542.6166,457.5,538.6166" style="stroke:#B38D22;stroke-width:1;"/></g><text fill="#000000" font-family="sans-serif" font-size="14" lengthAdjust="spacing" textLength="160.5352" x="470.5" y="542.9632">HashedPassword : text</text><line style="stroke:#181818;stroke-width:1;stroke-dasharray:1,2;" x1="451.5" x2="525.0166" y1="472.9291" y2="472.9291"/><text fill="#000000" font-family="sans-serif" font-size="14" lengthAdjust="spacing" textLength="37.502" x="525.0166" y="477.2757">fields</text><line style="stroke:#181818;stroke-width:1;stroke-dasharray:1,2;" x1="562.5186" x2="636.0352" y1="472.9291" y2="472.9291"/></g><!--class Company--><g class="entity" data-qualified-name="Company" data-source-line="19" id="ent0004"><rect fill="#F1F1F1" height="129.4844" rx="2.5" ry="2.5" style="stroke:#181818;stroke-width:0.5;" width="264.8066" x="1525.5" y="404.6869"/><ellipse cx="1620.3521" cy="420.6869" fill="#ADD1B2" rx="11" ry="11" style="stroke:#181818;stroke-width:1;"/><path d="M1624.4614,426.6869 L1616.7427,426.6869 L1616.7427,414.2962 L1624.4614,414.2962 L1624.4614,416.4525 L1619.1958,416.4525 L1619.1958,419.1244 L1623.9614,419.1244 L1623.9614,421.2806 L1619.1958,421.2806 L1619.1958,424.5306 L1624.4614,424.5306 L1624.4614,426.6869 Z " fill="#000000"/><text fill="#000000" font-family="sans-serif" font-size="14" lengthAdjust="spacing" textLength="66.6025" x="1640.8521" y="425.5336">Company</text><line style="stroke:#181818;stroke-width:0.5;" x1="1526.5" x2="1789.3066" y1="436.6869" y2="436.6869"/><g data-visibility-modifier="PRIVATE_FIELD"><rect fill="none" height="6" style="stroke:#C82930;stroke-width:1;" width="6" x="1533.5" y="467.6322"/></g><text fill="#000000" font-family="sans-serif" font-size="14" lengthAdjust="spacing" textLength="145.25" x="1545.5" y="473.9789">CompanyID : integer</text><line style="stroke:#181818;stroke-width:1;stroke-dasharray:1,2;" x1="1526.5" x2="1649.0918" y1="452.8353" y2="452.8353"/><text fill="#000000" font-family="sans-serif" font-size="14" lengthAdjust="spacing" textLength="17.623" x="1649.0918" y="457.182">PK</text><line style="stroke:#181818;stroke-width:1;stroke-dasharray:1,2;" x1="1666.7148" x2="1789.3066" y1="452.8353" y2="452.8353"/><g data-visibility-modifier="PUBLIC_FIELD"><ellipse cx="1536.5" cy="507.2259" fill="none" rx="3" ry="3" style="stroke:#038048;stroke-width:1;"/></g><text fill="#000000" font-family="sans-serif" font-size="14" lengthAdjust="spacing" textLength="82.7969" x="1545.5" y="510.5726">Name : text</text><g data-visibility-modifier="PUBLIC_FIELD"><ellipse cx="1536.5" cy="523.5228" fill="none" rx="3" ry="3" style="stroke:#038048;stroke-width:1;"/></g><text fill="#000000" font-family="sans-serif" font-size="14" lengthAdjust="spacing" textLength="238.8066" x="1545.5" y="526.8695">CompanyPicture : text (image url)</text><line style="stroke:#181818;stroke-width:1;stroke-dasharray:1,2;" x1="1526.5" x2="1639.1523" y1="489.4291" y2="489.4291"/><text fill="#000000" font-family="sans-serif" font-size="14" lengthAdjust="spacing" textLength="37.502" x="1639.1523" y="493.7757">fields</text><line style="stroke:#181818;stroke-width:1;stroke-dasharray:1,2;" x1="1676.6543" x2="1789.3066" y1="489.4291" y2="489.4291"/></g><!--class Review--><g class="entity" data-qualified-name="Review" data-source-line="27" id="ent0005"><rect fill="#F1F1F1" height="231.2656" rx="2.5" ry="2.5" style="stroke:#181818;stroke-width:0.5;" width="221.0225" x="652" y="635.1869"/><ellipse cx="732.9717" cy="651.1869" fill="#ADD1B2" rx="11" ry="11" style="stroke:#181818;stroke-width:1;"/><path d="M737.0811,657.1869 L729.3623,657.1869 L729.3623,644.7962 L737.0811,644.7962 L737.0811,646.9525 L731.8154,646.9525 L731.8154,649.6244 L736.5811,649.6244 L736.5811,651.7806 L731.8154,651.7806 L731.8154,655.0306 L737.0811,655.0306 L737.0811,657.1869 Z " fill="#000000"/><text fill="#000000" font-family="sans-serif" font-size="14" lengthAdjust="spacing" textLength="50.5791" x="753.4717" y="656.0336">Review</text><line style="stroke:#181818;stroke-width:0.5;" x1="653" x2="872.0225" y1="667.1869" y2="667.1869"/><g data-visibility-modifier="PRIVATE_FIELD"><rect fill="none" height="6" style="stroke:#C82930;stroke-width:1;" width="6" x="660" y="698.1322"/></g><text fill="#000000" font-family="sans-serif" font-size="14" lengthAdjust="spacing" textLength="129.2266" x="672" y="704.4789">ReviewID : integer</text><line style="stroke:#181818;stroke-width:1;stroke-dasharray:1,2;" x1="653" x2="753.6997" y1="683.3353" y2="683.3353"/><text fill="#000000" font-family="sans-serif" font-size="14" lengthAdjust="spacing" textLength="17.623" x="753.6997" y="687.682">PK</text><line style="stroke:#181818;stroke-width:1;stroke-dasharray:1,2;" x1="771.3228" x2="872.0225" y1="683.3353" y2="683.3353"/><text fill="#000000" font-family="sans-serif" font-size="14" lengthAdjust="spacing" textLength="46.8193" x="658" y="741.0726">UserID</text><text fill="#000000" font-family="sans-serif" font-size="14" lengthAdjust="spacing" textLength="84.2461" x="658" y="757.3695">EmployeeID</text><text fill="#000000" font-family="sans-serif" font-size="14" lengthAdjust="spacing" textLength="48.2207" x="658" y="773.6664">TagsID</text><line style="stroke:#181818;stroke-width:1;stroke-dasharray:1,2;" x1="653" x2="753.8945" y1="719.9291" y2="719.9291"/><text fill="#000000" font-family="sans-serif" font-size="14" lengthAdjust="spacing" textLength="17.2334" x="753.8945" y="724.2757">FK</text><line style="stroke:#181818;stroke-width:1;stroke-dasharray:1,2;" x1="771.1279" x2="872.0225" y1="719.9291" y2="719.9291"/><g data-visibility-modifier="PUBLIC_FIELD"><ellipse cx="663" cy="806.9134" fill="none" rx="3" ry="3" style="stroke:#038048;stroke-width:1;"/></g><text fill="#000000" font-family="sans-serif" font-size="14" lengthAdjust="spacing" textLength="152.8447" x="672" y="810.2601">Rating : smallint (1-5)</text><g data-visibility-modifier="PUBLIC_FIELD"><ellipse cx="663" cy="823.2103" fill="none" rx="3" ry="3" style="stroke:#038048;stroke-width:1;"/></g><text fill="#000000" font-family="sans-serif" font-size="14" lengthAdjust="spacing" textLength="191.1465" x="672" y="826.557">CreatedDate : timestamptz</text><g data-visibility-modifier="PUBLIC_FIELD"><ellipse cx="663" cy="839.5072" fill="none" rx="3" ry="3" style="stroke:#038048;stroke-width:1;"/></g><text fill="#000000" font-family="sans-serif" font-size="14" lengthAdjust="spacing" textLength="195.0225" x="672" y="842.8539">UpdatedDate : timestamptz</text><g data-visibility-modifier="PUBLIC_FIELD"><ellipse cx="663" cy="855.8041" fill="none" rx="3" ry="3" style="stroke:#038048;stroke-width:1;"/></g><text fill="#000000" font-family="sans-serif" font-size="14" lengthAdjust="spacing" textLength="117.3799" x="672" y="859.1507">Comments : text</text><line style="stroke:#181818;stroke-width:1;stroke-dasharray:1,2;" x1="653" x2="743.7603" y1="789.1166" y2="789.1166"/><text fill="#000000" font-family="sans-serif" font-size="14" lengthAdjust="spacing" textLength="37.502" x="743.7603" y="793.4632">fields</text><line style="stroke:#181818;stroke-width:1;stroke-dasharray:1,2;" x1="781.2622" x2="872.0225" y1="789.1166" y2="789.1166"/></g><!--class Tags--><g class="entity" data-qualified-name="Tags" data-source-line="41" id="ent0006"><rect fill="#F1F1F1" height="145.7813" rx="2.5" ry="2.5" style="stroke:#181818;stroke-width:0.5;" width="541.2314" x="924" y="678.1869"/><ellipse cx="1173.71" cy="694.1869" fill="#ADD1B2" rx="11" ry="11" style="stroke:#181818;stroke-width:1;"/><path d="M1177.8193,700.1869 L1170.1006,700.1869 L1170.1006,687.7962 L1177.8193,687.7962 L1177.8193,689.9525 L1172.5537,689.9525 L1172.5537,692.6244 L1177.3193,692.6244 L1177.3193,694.7806 L1172.5537,694.7806 L1172.5537,698.0306 L1177.8193,698.0306 L1177.8193,700.1869 Z " fill="#000000"/><text fill="#000000" font-family="sans-serif" font-size="14" lengthAdjust="spacing" textLength="33.3115" x="1194.21" y="699.0336">Tags</text><line style="stroke:#181818;stroke-width:0.5;" x1="925" x2="1464.2314" y1="710.1869" y2="710.1869"/><text fill="#000000" font-family="sans-serif" font-size="14" lengthAdjust="spacing" textLength="111.959" x="930" y="747.4789">TagsID : integer</text><line style="stroke:#181818;stroke-width:1;stroke-dasharray:1,2;" x1="925" x2="1185.8042" y1="726.3353" y2="726.3353"/><text fill="#000000" font-family="sans-serif" font-size="14" lengthAdjust="spacing" textLength="17.623" x="1185.8042" y="730.682">PK</text><line style="stroke:#181818;stroke-width:1;stroke-dasharray:1,2;" x1="1203.4272" x2="1464.2314" y1="726.3353" y2="726.3353"/><g data-visibility-modifier="PRIVATE_FIELD"><rect fill="none" height="6" style="stroke:#C82930;stroke-width:1;" width="6" x="932" y="777.7259"/></g><text fill="#000000" font-family="sans-serif" font-size="14" lengthAdjust="spacing" textLength="515.2314" x="944" y="784.0726">Tag1 : enum ["Lots of Questions", "Slow Replies", "Approachable", " ", ...]</text><g data-visibility-modifier="PRIVATE_FIELD"><rect fill="none" height="6" style="stroke:#C82930;stroke-width:1;" width="6" x="932" y="794.0228"/></g><text fill="#000000" font-family="sans-serif" font-size="14" lengthAdjust="spacing" textLength="515.2314" x="944" y="800.3695">Tag2 : enum ["Lots of Questions", "Slow Replies", "Approachable", " ", ...]</text><g data-visibility-modifier="PRIVATE_FIELD"><rect fill="none" height="6" style="stroke:#C82930;stroke-width:1;" width="6" x="932" y="810.3197"/></g><text fill="#000000" font-family="sans-serif" font-size="14" lengthAdjust="spacing" textLength="515.2314" x="944" y="816.6664">Tag3 : enum ["Lots of Questions", "Slow Replies", "Approachable", " ", ...]</text><line style="stroke:#181818;stroke-width:1;stroke-dasharray:1,2;" x1="925" x2="1175.8647" y1="762.9291" y2="762.9291"/><text fill="#000000" font-family="sans-serif" font-size="14" lengthAdjust="spacing" textLength="37.502" x="1175.8647" y="767.2757">fields</text><line style="stroke:#181818;stroke-width:1;stroke-dasharray:1,2;" x1="1213.3667" x2="1464.2314" y1="762.9291" y2="762.9291"/></g><!--class Flag--><g class="entity" data-qualified-name="Flag" data-source-line="50" id="ent0007"><rect fill="#F1F1F1" height="198.6719" rx="2.5" ry="2.5" style="stroke:#181818;stroke-width:0.5;" width="509.0479" x="7" y="651.6869"/><ellipse cx="242.5698" cy="667.6869" fill="#ADD1B2" rx="11" ry="11" style="stroke:#181818;stroke-width:1;"/><path d="M246.6792,673.6869 L238.9604,673.6869 L238.9604,661.2962 L246.6792,661.2962 L246.6792,663.4525 L241.4136,663.4525 L241.4136,666.1244 L246.1792,666.1244 L246.1792,668.2806 L241.4136,668.2806 L241.4136,671.5306 L246.6792,671.5306 L246.6792,673.6869 Z " fill="#000000"/><text fill="#000000" font-family="sans-serif" font-size="14" lengthAdjust="spacing" textLength="29.4082" x="263.0698" y="672.5336">Flag</text><line style="stroke:#181818;stroke-width:0.5;" x1="8" x2="515.0479" y1="683.6869" y2="683.6869"/><g data-visibility-modifier="PRIVATE_FIELD"><rect fill="none" height="6" style="stroke:#C82930;stroke-width:1;" width="6" x="15" y="714.6322"/></g><text fill="#000000" font-family="sans-serif" font-size="14" lengthAdjust="spacing" textLength="103.6055" x="27" y="720.9789">FlagID: integer</text><line style="stroke:#181818;stroke-width:1;stroke-dasharray:1,2;" x1="8" x2="252.7124" y1="699.8353" y2="699.8353"/><text fill="#000000" font-family="sans-serif" font-size="14" lengthAdjust="spacing" textLength="17.623" x="252.7124" y="704.182">PK</text><line style="stroke:#181818;stroke-width:1;stroke-dasharray:1,2;" x1="270.3354" x2="515.0479" y1="699.8353" y2="699.8353"/><text fill="#000000" font-family="sans-serif" font-size="14" lengthAdjust="spacing" textLength="46.8193" x="13" y="757.5726">UserID</text><text fill="#000000" font-family="sans-serif" font-size="14" lengthAdjust="spacing" textLength="65.4883" x="13" y="773.8695">ReviewID</text><line style="stroke:#181818;stroke-width:1;stroke-dasharray:1,2;" x1="8" x2="252.9072" y1="736.4291" y2="736.4291"/><text fill="#000000" font-family="sans-serif" font-size="14" lengthAdjust="spacing" textLength="17.2334" x="252.9072" y="740.7757">FK</text><line style="stroke:#181818;stroke-width:1;stroke-dasharray:1,2;" x1="270.1406" x2="515.0479" y1="736.4291" y2="736.4291"/><g data-visibility-modifier="PUBLIC_FIELD"><ellipse cx="18" cy="807.1166" fill="none" rx="3" ry="3" style="stroke:#038048;stroke-width:1;"/></g><text fill="#000000" font-family="sans-serif" font-size="14" lengthAdjust="spacing" textLength="483.0479" x="27" y="810.4632">Reason : enum ["BAD PHOTO", "INAPPROPRAITE TEXT", "OTHER", ...]</text><g data-visibility-modifier="PUBLIC_FIELD"><ellipse cx="18" cy="823.4134" fill="none" rx="3" ry="3" style="stroke:#038048;stroke-width:1;"/></g><text fill="#000000" font-family="sans-serif" font-size="14" lengthAdjust="spacing" textLength="132.9932" x="27" y="826.7601">Reason_other: text</text><g data-visibility-modifier="PUBLIC_FIELD"><ellipse cx="18" cy="839.7103" fill="none" rx="3" ry="3" style="stroke:#038048;stroke-width:1;"/></g><text fill="#000000" font-family="sans-serif" font-size="14" lengthAdjust="spacing" textLength="126.9502" x="27" y="843.057">Status : enum [...]</text><line style="stroke:#181818;stroke-width:1;stroke-dasharray:1,2;" x1="8" x2="242.7729" y1="789.3197" y2="789.3197"/><text fill="#000000" font-family="sans-serif" font-size="14" lengthAdjust="spacing" textLength="37.502" x="242.7729" y="793.6664">fields</text><line style="stroke:#181818;stroke-width:1;stroke-dasharray:1,2;" x1="280.2749" x2="515.0479" y1="789.3197" y2="789.3197"/></g><!--class EmployeeToCompanyMappingTable--><g class="entity" data-qualified-name="EmployeeToCompanyMappingTable" data-source-line="62" id="ent0008"><rect fill="#F1F1F1" height="162.0781" rx="2.5" ry="2.5" style="stroke:#181818;stroke-width:0.5;" width="283.6582" x="1516" y="669.6869"/><ellipse cx="1531" cy="685.6869" fill="#ADD1B2" rx="11" ry="11" style="stroke:#181818;stroke-width:1;"/><path d="M1535.1094,691.6869 L1527.3906,691.6869 L1527.3906,679.2962 L1535.1094,679.2962 L1535.1094,681.4525 L1529.8438,681.4525 L1529.8438,684.1244 L1534.6094,684.1244 L1534.6094,686.2806 L1529.8438,686.2806 L1529.8438,689.5306 L1535.1094,689.5306 L1535.1094,691.6869 Z " fill="#000000"/><text fill="#000000" font-family="sans-serif" font-size="14" lengthAdjust="spacing" textLength="251.6582" x="1545" y="690.5336">EmployeeToCompanyMappingTable</text><line style="stroke:#181818;stroke-width:0.5;" x1="1517" x2="1798.6582" y1="701.6869" y2="701.6869"/><text fill="#000000" font-family="sans-serif" font-size="14" lengthAdjust="spacing" textLength="84.2461" x="1522" y="738.9789">EmployeeID</text><text fill="#000000" font-family="sans-serif" font-size="14" lengthAdjust="spacing" textLength="81.5117" x="1522" y="755.2757">CompanyID</text><line style="stroke:#181818;stroke-width:1;stroke-dasharray:1,2;" x1="1517" x2="1637.1812" y1="717.8353" y2="717.8353"/><text fill="#000000" font-family="sans-serif" font-size="14" lengthAdjust="spacing" textLength="41.2959" x="1637.1812" y="722.182">PK/CK</text><line style="stroke:#181818;stroke-width:1;stroke-dasharray:1,2;" x1="1678.4771" x2="1798.6582" y1="717.8353" y2="717.8353"/><g data-visibility-modifier="PRIVATE_FIELD"><rect fill="none" height="6" style="stroke:#C82930;stroke-width:1;" width="6" x="1524" y="785.5228"/></g><text fill="#000000" font-family="sans-serif" font-size="14" lengthAdjust="spacing" textLength="124.3252" x="1536" y="791.8695">isActive : boolean</text><g data-visibility-modifier="PUBLIC_FIELD"><ellipse cx="1527" cy="804.8197" fill="none" rx="3" ry="3" style="stroke:#038048;stroke-width:1;"/></g><text fill="#000000" font-family="sans-serif" font-size="14" lengthAdjust="spacing" textLength="111.2549" x="1536" y="808.1664">startDate : date</text><g data-visibility-modifier="PUBLIC_FIELD"><ellipse cx="1527" cy="821.1166" fill="none" rx="3" ry="3" style="stroke:#038048;stroke-width:1;"/></g><text fill="#000000" font-family="sans-serif" font-size="14" lengthAdjust="spacing" textLength="226.584" x="1536" y="824.4632">endDate : date or text "Current"</text><line style="stroke:#181818;stroke-width:1;stroke-dasharray:1,2;" x1="1517" x2="1639.0781" y1="770.7259" y2="770.7259"/><text fill="#000000" font-family="sans-serif" font-size="14" lengthAdjust="spacing" textLength="37.502" x="1639.0781" y="775.0726">fields</text><line style="stroke:#181818;stroke-width:1;stroke-dasharray:1,2;" x1="1676.5801" x2="1798.6582" y1="770.7259" y2="770.7259"/></g><!--class Employee--><g class="entity" data-qualified-name="Employee" data-source-line="72" id="ent0009"><rect fill="#F1F1F1" height="162.0781" rx="2.5" ry="2.5" style="stroke:#181818;stroke-width:0.5;" width="314.4014" x="1037.5" y="388.1869"/><ellipse cx="1155.7822" cy="404.1869" fill="#ADD1B2" rx="11" ry="11" style="stroke:#181818;stroke-width:1;"/><path d="M1159.8916,410.1869 L1152.1729,410.1869 L1152.1729,397.7962 L1159.8916,397.7962 L1159.8916,399.9525 L1154.626,399.9525 L1154.626,402.6244 L1159.3916,402.6244 L1159.3916,404.7806 L1154.626,404.7806 L1154.626,408.0306 L1159.8916,408.0306 L1159.8916,410.1869 Z " fill="#000000"/><text fill="#000000" font-family="sans-serif" font-size="14" lengthAdjust="spacing" textLength="69.3369" x="1176.2822" y="409.0336">Employee</text><line style="stroke:#181818;stroke-width:0.5;" x1="1038.5" x2="1350.9014" y1="420.1869" y2="420.1869"/><g data-visibility-modifier="PRIVATE_FIELD"><rect fill="none" height="6" style="stroke:#C82930;stroke-width:1;" width="6" x="1045.5" y="451.1322"/></g><text fill="#000000" font-family="sans-serif" font-size="14" lengthAdjust="spacing" textLength="147.9844" x="1057.5" y="457.4789">EmployeeID : integer</text><line style="stroke:#181818;stroke-width:1;stroke-dasharray:1,2;" x1="1038.5" x2="1185.8892" y1="436.3353" y2="436.3353"/><text fill="#000000" font-family="sans-serif" font-size="14" lengthAdjust="spacing" textLength="17.623" x="1185.8892" y="440.682">PK</text><line style="stroke:#181818;stroke-width:1;stroke-dasharray:1,2;" x1="1203.5122" x2="1350.9014" y1="436.3353" y2="436.3353"/><g data-visibility-modifier="PUBLIC_FIELD"><ellipse cx="1048.5" cy="490.7259" fill="none" rx="3" ry="3" style="stroke:#038048;stroke-width:1;"/></g><text fill="#000000" font-family="sans-serif" font-size="14" lengthAdjust="spacing" textLength="152.1338" x="1057.5" y="494.0726">EmployeeName : text</text><g data-visibility-modifier="PUBLIC_FIELD"><ellipse cx="1048.5" cy="507.0228" fill="none" rx="3" ry="3" style="stroke:#038048;stroke-width:1;"/></g><text fill="#000000" font-family="sans-serif" font-size="14" lengthAdjust="spacing" textLength="197.6133" x="1057.5" y="510.3695">ExperienceLevel : enum [...]</text><g data-visibility-modifier="PUBLIC_FIELD"><ellipse cx="1048.5" cy="523.3197" fill="none" rx="3" ry="3" style="stroke:#038048;stroke-width:1;"/></g><text fill="#000000" font-family="sans-serif" font-size="14" lengthAdjust="spacing" textLength="164.2334" x="1057.5" y="526.6664">Role : enum [...] or text</text><g data-visibility-modifier="PUBLIC_FIELD"><ellipse cx="1048.5" cy="539.6166" fill="none" rx="3" ry="3" style="stroke:#038048;stroke-width:1;"/></g><text fill="#000000" font-family="sans-serif" font-size="14" lengthAdjust="spacing" textLength="288.4014" x="1057.5" y="542.9632">ProfilePicture (optional) : text (image url)</text><line style="stroke:#181818;stroke-width:1;stroke-dasharray:1,2;" x1="1038.5" x2="1175.9497" y1="472.9291" y2="472.9291"/><text fill="#000000" font-family="sans-serif" font-size="14" lengthAdjust="spacing" textLength="37.502" x="1175.9497" y="477.2757">fields</text><line style="stroke:#181818;stroke-width:1;stroke-dasharray:1,2;" x1="1213.4517" x2="1350.9014" y1="472.9291" y2="472.9291"/></g><!--class Recruiter--><g class="entity" data-qualified-name="Recruiter" data-source-line="82" id="ent0010"><rect fill="#F1F1F1" height="113.1875" rx="2.5" ry="2.5" style="stroke:#181818;stroke-width:0.5;" width="169.0625" x="1147" y="206.1869"/><ellipse cx="1195.0737" cy="222.1869" fill="#ADD1B2" rx="11" ry="11" style="stroke:#181818;stroke-width:1;"/><path d="M1199.1831,228.1869 L1191.4644,228.1869 L1191.4644,215.7962 L1199.1831,215.7962 L1199.1831,217.9525 L1193.9175,217.9525 L1193.9175,220.6244 L1198.6831,220.6244 L1198.6831,222.7806 L1193.9175,222.7806 L1193.9175,226.0306 L1199.1831,226.0306 L1199.1831,228.1869 Z " fill="#000000"/><text fill="#000000" font-family="sans-serif" font-size="14" lengthAdjust="spacing" textLength="64.415" x="1215.5737" y="227.0336">Recruiter</text><line style="stroke:#181818;stroke-width:0.5;" x1="1148" x2="1315.0625" y1="238.1869" y2="238.1869"/><g data-visibility-modifier="PRIVATE_FIELD"><rect fill="none" height="6" style="stroke:#C82930;stroke-width:1;" width="6" x="1155" y="269.1322"/></g><text fill="#000000" font-family="sans-serif" font-size="14" lengthAdjust="spacing" textLength="143.0625" x="1167" y="275.4789">RecruiterID : integer</text><line style="stroke:#181818;stroke-width:1;stroke-dasharray:1,2;" x1="1148" x2="1222.7197" y1="254.3353" y2="254.3353"/><text fill="#000000" font-family="sans-serif" font-size="14" lengthAdjust="spacing" textLength="17.623" x="1222.7197" y="258.682">PK</text><line style="stroke:#181818;stroke-width:1;stroke-dasharray:1,2;" x1="1240.3428" x2="1315.0625" y1="254.3353" y2="254.3353"/><text fill="#000000" font-family="sans-serif" font-size="14" lengthAdjust="spacing" textLength="84.2461" x="1153" y="312.0726">EmployeeID</text><line style="stroke:#181818;stroke-width:1;stroke-dasharray:1,2;" x1="1148" x2="1222.9146" y1="290.9291" y2="290.9291"/><text fill="#000000" font-family="sans-serif" font-size="14" lengthAdjust="spacing" textLength="17.2334" x="1222.9146" y="295.2757">FK</text><line style="stroke:#181818;stroke-width:1;stroke-dasharray:1,2;" x1="1240.1479" x2="1315.0625" y1="290.9291" y2="290.9291"/></g><!--class Interviewer--><g class="entity" data-qualified-name="Interviewer" data-source-line="89" id="ent0011"><rect fill="#F1F1F1" height="113.1875" rx="2.5" ry="2.5" style="stroke:#181818;stroke-width:0.5;" width="184.1152" x="879.5" y="206.1869"/><ellipse cx="927.5737" cy="222.1869" fill="#ADD1B2" rx="11" ry="11" style="stroke:#181818;stroke-width:1;"/><path d="M931.6831,228.1869 L923.9644,228.1869 L923.9644,215.7962 L931.6831,215.7962 L931.6831,217.9525 L926.4175,217.9525 L926.4175,220.6244 L931.1831,220.6244 L931.1831,222.7806 L926.4175,222.7806 L926.4175,226.0306 L931.6831,226.0306 L931.6831,228.1869 Z " fill="#000000"/><text fill="#000000" font-family="sans-serif" font-size="14" lengthAdjust="spacing" textLength="79.4678" x="948.0737" y="227.0336">Interviewer</text><line style="stroke:#181818;stroke-width:0.5;" x1="880.5" x2="1062.6152" y1="238.1869" y2="238.1869"/><g data-visibility-modifier="PRIVATE_FIELD"><rect fill="none" height="6" style="stroke:#C82930;stroke-width:1;" width="6" x="887.5" y="269.1322"/></g><text fill="#000000" font-family="sans-serif" font-size="14" lengthAdjust="spacing" textLength="158.1152" x="899.5" y="275.4789">InterviewerID : integer</text><line style="stroke:#181818;stroke-width:1;stroke-dasharray:1,2;" x1="880.5" x2="962.7461" y1="254.3353" y2="254.3353"/><text fill="#000000" font-family="sans-serif" font-size="14" lengthAdjust="spacing" textLength="17.623" x="962.7461" y="258.682">PK</text><line style="stroke:#181818;stroke-width:1;stroke-dasharray:1,2;" x1="980.3691" x2="1062.6152" y1="254.3353" y2="254.3353"/><text fill="#000000" font-family="sans-serif" font-size="14" lengthAdjust="spacing" textLength="84.2461" x="885.5" y="312.0726">EmployeeID</text><line style="stroke:#181818;stroke-width:1;stroke-dasharray:1,2;" x1="880.5" x2="962.9409" y1="290.9291" y2="290.9291"/><text fill="#000000" font-family="sans-serif" font-size="14" lengthAdjust="spacing" textLength="17.2334" x="962.9409" y="295.2757">FK</text><line style="stroke:#181818;stroke-width:1;stroke-dasharray:1,2;" x1="980.1743" x2="1062.6152" y1="290.9291" y2="290.9291"/></g><!--class AnonymousUser--><g class="entity" data-qualified-name="AnonymousUser" data-source-line="96" id="ent0012"><rect fill="#F1F1F1" height="113.1875" rx="2.5" ry="2.5" style="stroke:#181818;stroke-width:0.5;" width="219.1016" x="433.95" y="206.0969"/><ellipse cx="482.0237" cy="222.0969" fill="#ADD1B2" rx="11" ry="11" style="stroke:#181818;stroke-width:1;"/><path d="M486.1331,228.0969 L478.4144,228.0969 L478.4144,215.7062 L486.1331,215.7062 L486.1331,217.8625 L480.8675,217.8625 L480.8675,220.5344 L485.6331,220.5344 L485.6331,222.6906 L480.8675,222.6906 L480.8675,225.9406 L486.1331,225.9406 L486.1331,228.0969 Z " fill="#000000"/><text fill="#000000" font-family="sans-serif" font-size="14" lengthAdjust="spacing" textLength="114.4541" x="502.5237" y="226.9436">AnonymousUser</text><line style="stroke:#181818;stroke-width:0.5;" x1="434.95" x2="652.0516" y1="238.0969" y2="238.0969"/><g data-visibility-modifier="PRIVATE_FIELD"><rect fill="none" height="6" style="stroke:#C82930;stroke-width:1;" width="6" x="441.95" y="269.0422"/></g><text fill="#000000" font-family="sans-serif" font-size="14" lengthAdjust="spacing" textLength="193.1016" x="453.95" y="275.3889">AnonymousUserID : integer</text><line style="stroke:#181818;stroke-width:1;stroke-dasharray:1,2;" x1="434.95" x2="534.6893" y1="254.2453" y2="254.2453"/><text fill="#000000" font-family="sans-serif" font-size="14" lengthAdjust="spacing" textLength="17.623" x="534.6893" y="258.592">PK</text><line style="stroke:#181818;stroke-width:1;stroke-dasharray:1,2;" x1="552.3123" x2="652.0516" y1="254.2453" y2="254.2453"/><g data-visibility-modifier="PRIVATE_FIELD"><rect fill="none" height="6" style="stroke:#C82930;stroke-width:1;" width="6" x="441.95" y="305.6359"/></g><text fill="#000000" font-family="sans-serif" font-size="14" lengthAdjust="spacing" textLength="166.8174" x="453.95" y="311.9826">DailyViewsLeft : integer</text><line style="stroke:#181818;stroke-width:1;stroke-dasharray:1,2;" x1="434.95" x2="524.7498" y1="290.8391" y2="290.8391"/><text fill="#000000" font-family="sans-serif" font-size="14" lengthAdjust="spacing" textLength="37.502" x="524.7498" y="295.1857">fields</text><line style="stroke:#181818;stroke-width:1;stroke-dasharray:1,2;" x1="562.2518" x2="652.0516" y1="290.8391" y2="290.8391"/></g><g class="entity" data-qualified-name="GMN28" data-source-line="133" id="ent0029"><path d="M463.21,80.1769 L463.21,105.3097 A0,0 0 0 0 463.21,105.3097 L539.5,105.3097 L543.5,205.8869 L547.5,105.3097 L623.795,105.3097 A0,0 0 0 0 623.795,105.3097 L623.795,90.1769 L613.795,80.1769 L463.21,80.1769 A0,0 0 0 0 463.21,80.1769" fill="#FEFFDD" style="stroke:#181818;stroke-width:0.5;"/><path d="M613.795,80.1769 L613.795,90.1769 L623.795,90.1769 L613.795,80.1769" fill="#FEFFDD" style="stroke:#181818;stroke-width:0.5;"/><text fill="#000000" font-family="sans-serif" font-size="13" lengthAdjust="spacing" textLength="139.585" x="469.21" y="97.2438">Out of scope for now.</text></g><g class="entity" data-qualified-name="GMN31" data-source-line="137" id="ent0032"><path d="M1395.6,215.8569 L1395.6,309.5209 A0,0 0 0 0 1395.6,309.5209 L1653.5,309.5209 L1657.5,400.8669 L1661.5,309.5209 L1919.3915,309.5209 A0,0 0 0 0 1919.3915,309.5209 L1919.3915,225.8569 L1909.3915,215.8569 L1395.6,215.8569 A0,0 0 0 0 1395.6,215.8569" fill="#FEFFDD" style="stroke:#181818;stroke-width:0.5;"/><path d="M1909.3915,215.8569 L1909.3915,225.8569 L1919.3915,225.8569 L1909.3915,215.8569" fill="#FEFFDD" style="stroke:#181818;stroke-width:0.5;"/><text fill="#000000" font-family="sans-serif" font-size="13" lengthAdjust="spacing" textLength="472.0181" x="1401.6" y="232.9238">Use SQL to aggregate all recruiter/interviewer ratings under a company.</text><line style="stroke:#181818;stroke-width:0.5;" x1="1396.6" x2="1918.3915" y1="235.9897" y2="235.9897"/><text fill="#000000" font-family="sans-serif" font-size="13" font-style="italic" lengthAdjust="spacing" textLength="242.3154" x="1401.6" y="252.0566">SELECT AVGERAGE(employee.rating)</text><text fill="#000000" font-family="sans-serif" font-size="13" font-style="italic" lengthAdjust="spacing" textLength="502.7915" x="1401.6" y="267.1894">FROM company_table INNER JOIN mapping_table INNER JOIN employee_table</text><text fill="#000000" font-family="sans-serif" font-size="13" font-style="italic" lengthAdjust="spacing" textLength="339.9487" x="1401.6" y="282.3222">WHERE company_id = '1' &lt;= ex. like this is amazon</text><text fill="#000000" font-family="sans-serif" font-size="13" font-style="italic" lengthAdjust="spacing" textLength="129.4224" x="1401.6" y="297.455">AND isActive = true</text></g><g class="entity" data-qualified-name="GMN34" data-source-line="146" id="ent0035"><path d="M531.9,931.1869 L531.9,1109.3822 A0,0 0 0 0 531.9,1109.3822 L993.0909,1109.3822 A0,0 0 0 0 993.0909,1109.3822 L993.0909,941.1869 L983.0909,931.1869 L766.5,931.1869 L762.5,869.8469 L758.5,931.1869 L531.9,931.1869 A0,0 0 0 0 531.9,931.1869" fill="#FEFFDD" style="stroke:#181818;stroke-width:0.5;"/><path d="M983.0909,931.1869 L983.0909,941.1869 L993.0909,941.1869 L983.0909,931.1869" fill="#FEFFDD" style="stroke:#181818;stroke-width:0.5;"/><text fill="#000000" font-family="sans-serif" font-size="13" lengthAdjust="spacing" textLength="266.4302" x="537.9" y="948.2538">Free text comment examples: Interiewer</text><line style="stroke:#181818;stroke-width:0.5;" x1="532.9" x2="992.0909" y1="951.3197" y2="951.3197"/><text fill="#000000" font-family="sans-serif" font-size="13" lengthAdjust="spacing" textLength="256.0835" x="537.9" y="967.3866">"Did the interviewer show up on time?"</text><text fill="#000000" font-family="sans-serif" font-size="13" lengthAdjust="spacing" textLength="247.0063" x="537.9" y="982.5194">"Did the interviewer seem prepared?"</text><text fill="#000000" font-family="sans-serif" font-size="13" lengthAdjust="spacing" textLength="440.1909" x="537.9" y="997.6522">"How well did the interview questions match the job title and role?"</text><text fill="#000000" font-family="sans-serif" font-size="13" lengthAdjust="spacing" textLength="4.1323" x="537.9" y="1012.785">&#160;</text><line style="stroke:#181818;stroke-width:1;" x1="532.9" x2="992.0909" y1="1019.8509" y2="1019.8509"/><line style="stroke:#181818;stroke-width:1;" x1="532.9" x2="992.0909" y1="1021.8509" y2="1021.8509"/><text fill="#000000" font-family="sans-serif" font-size="13" lengthAdjust="spacing" textLength="260.146" x="537.9" y="1035.9178">Free text comment examples: Recruiter</text><line style="stroke:#181818;stroke-width:0.5;" x1="532.9" x2="992.0909" y1="1042.9837" y2="1042.9837"/><text fill="#000000" font-family="sans-serif" font-size="13" lengthAdjust="spacing" textLength="416.5332" x="537.9" y="1059.0506">"Was communication with the recruiter professional and clear?"</text><text fill="#000000" font-family="sans-serif" font-size="13" lengthAdjust="spacing" textLength="4.1323" x="537.9" y="1074.1835">&#160;</text><line style="stroke:#181818;stroke-width:1;" x1="532.9" x2="992.0909" y1="1081.2494" y2="1081.2494"/><line style="stroke:#181818;stroke-width:1;" x1="532.9" x2="992.0909" y1="1083.2494" y2="1083.2494"/><text fill="#000000" font-family="sans-serif" font-size="13" lengthAdjust="spacing" textLength="253.1509" x="537.9" y="1097.3163">Potential feature: add multiple reviews</text></g><g class="entity" data-qualified-name="GMN37" data-source-line="162" id="ent0038"><path d="M65.49,992.5869 L65.49,1047.9853 A0,0 0 0 0 65.49,1047.9853 L457.5042,1047.9853 A0,0 0 0 0 457.5042,1047.9853 L457.5042,1002.5869 L447.5042,992.5869 L265.5,992.5869 L261.5,853.6269 L257.5,992.5869 L65.49,992.5869 A0,0 0 0 0 65.49,992.5869" fill="#FEFFDD" style="stroke:#181818;stroke-width:0.5;"/><path d="M447.5042,992.5869 L447.5042,1002.5869 L457.5042,1002.5869 L447.5042,992.5869" fill="#FEFFDD" style="stroke:#181818;stroke-width:0.5;"/><text fill="#000000" font-family="sans-serif" font-size="13" lengthAdjust="spacing" textLength="371.0142" x="71.49" y="1009.6538">Mapping: user ID, employee ID, timestamp(tz), review ID</text><text fill="#000000" font-family="sans-serif" font-size="13" font-style="italic" lengthAdjust="spacing" textLength="345.2046" x="71.49" y="1024.7866">SELECT * FROM mapping where employeeId = &#8220;123&#8221;</text><text fill="#000000" font-family="sans-serif" font-size="13" font-style="italic" lengthAdjust="spacing" textLength="331.2461" x="71.49" y="1039.9194">SELECT * FROM review where employeeId = &#8220;123&#8221;</text></g><g class="entity" data-qualified-name="GMN40" data-source-line="168" id="ent0041"><path d="M1106.83,68.6169 L1106.83,116.8825 A0,0 0 0 0 1106.83,116.8825 L1254.19,116.8825 L1242.45,202.3869 L1262.19,116.8825 L1418.1781,116.8825 A0,0 0 0 0 1418.1781,116.8825 L1418.1781,78.6169 L1408.1781,68.6169 L1106.83,68.6169 A0,0 0 0 0 1106.83,68.6169" fill="#FEFFDD" style="stroke:#181818;stroke-width:0.5;"/><path d="M1408.1781,68.6169 L1408.1781,78.6169 L1418.1781,78.6169 L1408.1781,68.6169" fill="#FEFFDD" style="stroke:#181818;stroke-width:0.5;"/><text fill="#000000" font-family="sans-serif" font-size="13" lengthAdjust="spacing" textLength="290.3481" x="1112.83" y="85.6838">Use SQL to get the average Recruiter rating.</text><line style="stroke:#181818;stroke-width:0.5;" x1="1107.83" x2="1417.1781" y1="88.7497" y2="88.7497"/><text fill="#000000" font-family="sans-serif" font-size="13" font-style="italic" lengthAdjust="spacing" textLength="262.5518" x="1112.83" y="104.8166">SELECT AVERAGE(review rating) from ...</text></g><g class="entity" data-qualified-name="GMN43" data-source-line="174" id="ent0044"><path d="M746.84,68.6169 L746.84,116.8825 A0,0 0 0 0 746.84,116.8825 L914.12,116.8825 L949.61,202.3869 L922.12,116.8825 L1072.1657,116.8825 A0,0 0 0 0 1072.1657,116.8825 L1072.1657,78.6169 L1062.1657,68.6169 L746.84,68.6169 A0,0 0 0 0 746.84,68.6169" fill="#FEFFDD" style="stroke:#181818;stroke-width:0.5;"/><path d="M1062.1657,68.6169 L1062.1657,78.6169 L1072.1657,78.6169 L1062.1657,68.6169" fill="#FEFFDD" style="stroke:#181818;stroke-width:0.5;"/><text fill="#000000" font-family="sans-serif" font-size="13" lengthAdjust="spacing" textLength="304.3257" x="752.84" y="85.6838">Use SQL to get the average Interviewer rating.</text><line style="stroke:#181818;stroke-width:0.5;" x1="747.84" x2="1071.1657" y1="88.7497" y2="88.7497"/><text fill="#000000" font-family="sans-serif" font-size="13" font-style="italic" lengthAdjust="spacing" textLength="262.5518" x="752.84" y="104.8166">SELECT AVERAGE(review rating) from ...</text></g><!--link Employee to EmployeeToCompanyMappingTable--><g class="link" data-entity-1="ent0009" data-entity-2="ent0008" data-link-type="dependency" data-source-line="107" id="lnk13"><path codeLine="107" d="M1352.5,452.1869 C1452.95,452.1869 1447.41,540.4469 1490.5,631.1869 C1510.57,673.4569 1461.71,733.6869 1508.5,733.6869" fill="none" id="Employee-to-EmployeeToCompanyMappingTable" style="stroke:#181818;stroke-width:1;"/><polygon fill="#181818" points="1514.5,733.6869,1505.5,729.6869,1509.5,733.6869,1505.5,737.6869,1514.5,733.6869" style="stroke:#181818;stroke-width:1;"/></g><!--link Company to EmployeeToCompanyMappingTable--><g class="link" data-entity-1="ent0004" data-entity-2="ent0008" data-link-type="dependency" data-source-line="108" id="lnk14"><path codeLine="108" d="M1790.5,468.1869 C1915.69,468.1869 1931.69,749.6869 1806.5,749.6869" fill="none" id="Company-to-EmployeeToCompanyMappingTable" style="stroke:#181818;stroke-width:1;"/><polygon fill="#181818" points="1800.5,749.6869,1809.5,753.6869,1805.5,749.6869,1809.5,745.6869,1800.5,749.6869" style="stroke:#181818;stroke-width:1;"/></g><!--link User to Review--><g class="link" data-entity-1="ent0003" data-entity-2="ent0005" data-link-type="dependency" data-source-line="110" id="lnk15"><path codeLine="110" d="M637.5,452.1869 C763.19,452.1869 518.81,734.6869 644.5,734.6869" fill="none" id="User-to-Review" style="stroke:#181818;stroke-width:1;"/><polygon fill="#181818" points="650.5,734.6869,641.5,730.6869,645.5,734.6869,641.5,738.6869,650.5,734.6869" style="stroke:#181818;stroke-width:1;"/><text fill="#000000" font-family="sans-serif" font-size="13" lengthAdjust="spacing" textLength="83.186" x="648.5" y="597.2538">one-to-many</text></g><!--link Employee to Review--><g class="link" data-entity-1="ent0009" data-entity-2="ent0005" data-link-type="dependency" data-source-line="111" id="lnk16"><path codeLine="111" d="M1036.5,452.1869 C936.05,452.1869 940,539.7169 898.5,631.1869 C887.13,656.2569 908.02,752.6869 880.5,752.6869" fill="none" id="Employee-to-Review" style="stroke:#181818;stroke-width:1;"/><polygon fill="#181818" points="874.5,752.6869,883.5,756.6869,879.5,752.6869,883.5,748.6869,874.5,752.6869" style="stroke:#181818;stroke-width:1;"/><text fill="#000000" font-family="sans-serif" font-size="13" lengthAdjust="spacing" textLength="83.186" x="917.5" y="597.2538">one-to-many</text></g><!--link User to Flag--><g class="link" data-entity-1="ent0003" data-entity-2="ent0007" data-link-type="dependency" data-source-line="113" id="lnk17"><path codeLine="113" d="M449.5,452.1869 C404.16,452.1869 436.57,511.0469 450.5,554.1869 C466.13,602.5969 500.88,599.2869 516.5,647.6869 C530.7,691.6869 569.72,751.6869 523.5,751.6869" fill="none" id="User-to-Flag" style="stroke:#181818;stroke-width:1;"/><polygon fill="#181818" points="517.5,751.6869,526.5,755.6869,522.5,751.6869,526.5,747.6869,517.5,751.6869" style="stroke:#181818;stroke-width:1;"/></g><!--reverse link Flag to Review--><g class="link" data-entity-1="ent0007" data-entity-2="ent0005" data-link-type="dependency" data-source-line="114" id="lnk19"><path codeLine="114" d="M523.5,768.6869 C538.9,768.6869 527.33,787.6569 541.5,793.6869 C576.25,808.5069 596.69,816.9069 626.5,793.6869 C660.86,766.9369 606.95,698.6869 650.5,698.6869" fill="none" id="Flag-backto-Review" style="stroke:#181818;stroke-width:1;"/><polygon fill="#181818" points="517.5,768.6869,526.5,772.6869,522.5,768.6869,526.5,764.6869,517.5,768.6869" style="stroke:#181818;stroke-width:1;"/><text fill="#000000" font-family="sans-serif" font-size="13" lengthAdjust="spacing" textLength="83.186" x="542.5" y="789.7538">one-to-many</text></g><!--reverse link Recruiter to Employee--><g class="link" data-entity-1="ent0010" data-entity-2="ent0009" data-link-type="dependency" data-source-line="116" id="lnk21"><path codeLine="116" d="M1139.5,306.6869 C1132.15,306.6869 1141.93,317.4369 1146.5,323.1869 C1205.61,397.6369 1294.11,308.4069 1351.5,384.1869 C1369.75,408.2869 1382.73,452.1869 1352.5,452.1869" fill="none" id="Recruiter-backto-Employee" style="stroke:#181818;stroke-width:1;"/><polygon fill="#181818" points="1145.5,306.6869,1136.5,302.6869,1140.5,306.6869,1136.5,310.6869,1145.5,306.6869" style="stroke:#181818;stroke-width:1;"/></g><!--reverse link Interviewer to Employee--><g class="link" data-entity-1="ent0011" data-entity-2="ent0009" data-link-type="dependency" data-source-line="117" id="lnk23"><path codeLine="117" d="M1070.5,306.6869 C1077.85,306.6869 1065.19,316.0369 1063.5,323.1869 C1050.05,380.1969 977.92,452.1869 1036.5,452.1869" fill="none" id="Interviewer-backto-Employee" style="stroke:#181818;stroke-width:1;"/><polygon fill="#181818" points="1064.5,306.6869,1073.5,310.6869,1069.5,306.6869,1073.5,302.6869,1064.5,306.6869" style="stroke:#181818;stroke-width:1;"/></g><!--reverse link Review to Tags--><g class="link" data-entity-1="ent0005" data-entity-2="ent0006" data-link-type="dependency" data-source-line="119" id="lnk25"><path codeLine="119" d="M880.5,768.6869 C904.98,768.6869 898.02,741.6869 922.5,741.6869" fill="none" id="Review-backto-Tags" style="stroke:#181818;stroke-width:1;"/><polygon fill="#181818" points="874.5,768.6869,883.5,772.6869,879.5,768.6869,883.5,764.6869,874.5,768.6869" style="stroke:#181818;stroke-width:1;"/></g><!--link Employee to Tags--><!--link AnonymousUser to User--><!--SRC=[hLPjRzis4FwkNt5mFoHPOnTfiIzQqy6BbKQhOxkEssueYe2MpZPNITH8AavQ5EWFsVvSVycErBljE1lMBuPrl7luyFZS7JNN4S84KSAKQGnXm3IRCuKmGCMN2Rov73fE436bu9NtEpoAU8BkFChmfpaBFheiuW7QJ_Zi07JXyu9Z57w1LF8R0YJRuzgMpScTJ8yQRa9ZG1ixNnm74ytr7RnHnCQWzNemUKM_5jXO_G6um1EDIvJvkeLHkSzZE1DnJ22Al3JUQcipSGcBiRPrmOiPZsh38xXWQeNXX4wv5Z8iLsfA19oov6wRLR7m4B5HYq2TaI9ymWEToT833ddCbWYPZ8uQ7APumt6zJI6tRpCuBpponD4VBquZSOTeFsPigUoVBQubDz83JvQ4gc8MqRKJhvFkZqTveYKQjP1OB6aUez8iJlMdFELfk6TryvBg4nfEc-VBUUxBRjVud9079baCxpj3GTXY0QypsfQBH7MEeNCLYJLbAequskz-IifZmOhD8pJVG3-zNkz3YVVqE-Cz-rvuTRRE8xRSLeEn-eE7f51gPjVzJv4faTHyV-aFO78ndeqD3t_Kdqocuycqxyyyc7c_pOnrFBlmflM9IunheLSe6xA_qandgeBUE52fpvaeokAIfIb9S6QIK9_qoLbncfQUgqBS9H2k-e7cDqQDSo4YP8cbGwgKkb1fM3OhJCA62OJCQx9pbab9H3ix26_VGarjVrye_JRxWtURekIO13Z46upQ6RC9fbEqh2NHLWbFf5Zm2ClsSYXI8pWM7JtKQGAPSRsh2rTBz_URnhNKa3vvIgEvNQ2DnVy8sqz4SXUBJEsU6QtbXxh8W6R2tLjYeOQuq0rVsivn3c3g3VipVpowkl0dLuvJyd7TncLtko_soxZfxHJhhbjFaNy1K2lTCSTotU9m9ZIlwyhaWaYmgqKtfe3x6PTHBTKs8xStCcscD3XbV3M9kX5biF9g3AWMw6u-MMeP5J9hvMjFG4D2hH37p0_NBQP8oQiaN0n1UxtzeVzoTEcDPZKnw8PYdRnVyJ34v0F56N-dhRbD5sFC0KVZcKSwIUY10rgafkMtGabquqmRimf4Yh2W2ax4kaVQ3i54jMEBQy-xE5oz7j82iELIujBqAHhH8CkiFU6DSfDsZYl8af2-60Gva17zzJNzFESlhhoXTpQ3_jkNthJ_qZl48W6zFFOezpgVZY_Bw6jjcx8_6dbJ-7NiZo3EHRgzK8BbApdKEveNNeN5GpY5WvC3U7uAUDk3Y7-aOw-ueiODB6QVH9A7zKU3kfUVWfOPRcPhBhGMiKbOViaKU2xfAcsx2_Ad1sr2pv48bPlhnkQfJ4TdG7HeRa4pXsf5upcZUqZiS-RdphsEY34zQZ5b4iFSxO92rqZN4sxwmv_b4u2ofuELNVr3p6aFyofdT399VPvW2EVqz86ZL3LJdUGTKzOlItZ0p3wmvZhVfPAAUO4lK2ax5-oM0Sr7sTXpGccbRakh2thqqHnnWOKXn5caEUrCKEOiwlwBC5s0S8ekva9cwiOV75VAi1_LC_5GVpewBb31plDQeJ-05M6XDLZJym8h6D_8wDlNlqwUFllszUzTSGNeth3TrTTCRgF-bgXjEjaDIZD8wycPLyxE8ijhhE1IL1Wi92MB1laz-pVwstu6_bRb_myE_m00]--></g></svg>