<?plantuml 1.2026.1beta2?><svg xmlns="http://www.w3.org/2000/svg" xmlns:xlink="http://www.w3.org/1999/xlink" contentStyleType="text/css" data-diagram-type="CLASS" height="1063px" preserveAspectRatio="none" style="width:1681px;height:1063px;background:#FFFFFF;" version="1.1" viewBox="0 0 1681 1063" width="1681px" zoomAndPan="magnify"><title>Peer Rated Database Design UML</title><defs/><g><g class="title" data-source-line="1"><text fill="#000000" font-family="sans-serif" font-size="14" font-weight="bold" lengthAdjust="spacing" textLength="265.0498" x="701.1701" y="22.9951">Peer Rated Database Design UML</text></g><!--class users--><g class="entity" data-qualified-name="users" data-source-line="3" id="ent0002"><rect fill="#F1F1F1" height="178.375" rx="2.5" ry="2.5" style="stroke:#181818;stroke-width:0.5;" width="243.0068" x="258.22" y="287.2969"/><ellipse cx="356.5584" cy="303.2969" fill="#ADD1B2" rx="11" ry="11" style="stroke:#181818;stroke-width:1;"/><path d="M360.6678,309.2969 L352.949,309.2969 L352.949,296.9063 L360.6678,296.9063 L360.6678,299.0625 L355.4021,299.0625 L355.4021,301.7344 L360.1678,301.7344 L360.1678,303.8906 L355.4021,303.8906 L355.4021,307.1406 L360.6678,307.1406 L360.6678,309.2969 Z " fill="#000000"/><text fill="#000000" font-family="sans-serif" font-size="14" lengthAdjust="spacing" textLength="37.8301" x="377.0584" y="308.1436">users</text><line style="stroke:#181818;stroke-width:0.5;" x1="259.22" x2="500.2268" y1="319.2969" y2="319.2969"/><text fill="#000000" font-family="sans-serif" font-size="14" lengthAdjust="spacing" textLength="114.0508" x="264.22" y="356.5889">user_id : integer</text><line style="stroke:#181818;stroke-width:1;stroke-dasharray:1,2;" x1="259.22" x2="370.9119" y1="335.4453" y2="335.4453"/><text fill="#000000" font-family="sans-serif" font-size="14" lengthAdjust="spacing" textLength="17.623" x="370.9119" y="339.792">PK</text><line style="stroke:#181818;stroke-width:1;stroke-dasharray:1,2;" x1="388.5349" x2="500.2268" y1="335.4453" y2="335.4453"/><text fill="#000000" font-family="sans-serif" font-size="14" lengthAdjust="spacing" textLength="115.3018" x="264.22" y="393.1826">comments : text</text><text fill="#000000" font-family="sans-serif" font-size="14" lengthAdjust="spacing" textLength="111.7334" x="264.22" y="409.4795">username : text</text><text fill="#000000" font-family="sans-serif" font-size="14" lengthAdjust="spacing" textLength="80.1035" x="264.22" y="425.7764">email : text</text><text fill="#000000" font-family="sans-serif" font-size="14" lengthAdjust="spacing" textLength="194.1748" x="264.22" y="442.0732">created_date : timestamptz</text><text fill="#000000" font-family="sans-serif" font-size="14" lengthAdjust="spacing" textLength="231.0068" x="264.22" y="458.3701">last_updated_date : timestamptz</text><line style="stroke:#181818;stroke-width:1;stroke-dasharray:1,2;" x1="259.22" x2="360.9724" y1="372.0391" y2="372.0391"/><text fill="#000000" font-family="sans-serif" font-size="14" lengthAdjust="spacing" textLength="37.502" x="360.9724" y="376.3857">fields</text><line style="stroke:#181818;stroke-width:1;stroke-dasharray:1,2;" x1="398.4744" x2="500.2268" y1="372.0391" y2="372.0391"/></g><!--class companies--><g class="entity" data-qualified-name="companies" data-source-line="14" id="ent0003"><rect fill="#F1F1F1" height="162.0781" rx="2.5" ry="2.5" style="stroke:#181818;stroke-width:0.5;" width="256.1729" x="1347.72" y="295.2969"/><ellipse cx="1433.5384" cy="311.2969" fill="#ADD1B2" rx="11" ry="11" style="stroke:#181818;stroke-width:1;"/><path d="M1437.6477,317.2969 L1429.929,317.2969 L1429.929,304.9063 L1437.6477,304.9063 L1437.6477,307.0625 L1432.3821,307.0625 L1432.3821,309.7344 L1437.1477,309.7344 L1437.1477,311.8906 L1432.3821,311.8906 L1432.3821,315.1406 L1437.6477,315.1406 L1437.6477,317.2969 Z " fill="#000000"/><text fill="#000000" font-family="sans-serif" font-size="14" lengthAdjust="spacing" textLength="76.0361" x="1454.0384" y="316.1436">companies</text><line style="stroke:#181818;stroke-width:0.5;" x1="1348.72" x2="1602.8929" y1="327.2969" y2="327.2969"/><text fill="#000000" font-family="sans-serif" font-size="14" lengthAdjust="spacing" textLength="148.0391" x="1353.72" y="364.5889">company_id : integer</text><line style="stroke:#181818;stroke-width:1;stroke-dasharray:1,2;" x1="1348.72" x2="1466.9949" y1="343.4453" y2="343.4453"/><text fill="#000000" font-family="sans-serif" font-size="14" lengthAdjust="spacing" textLength="17.623" x="1466.9949" y="347.792">PK</text><line style="stroke:#181818;stroke-width:1;stroke-dasharray:1,2;" x1="1484.6179" x2="1602.8929" y1="343.4453" y2="343.4453"/><text fill="#000000" font-family="sans-serif" font-size="14" lengthAdjust="spacing" textLength="81.1973" x="1353.72" y="401.1826">name : text</text><text fill="#000000" font-family="sans-serif" font-size="14" lengthAdjust="spacing" textLength="244.1729" x="1353.72" y="417.4795">company_picture : text (image url)</text><text fill="#000000" font-family="sans-serif" font-size="14" lengthAdjust="spacing" textLength="194.1748" x="1353.72" y="433.7764">created_date : timestamptz</text><text fill="#000000" font-family="sans-serif" font-size="14" lengthAdjust="spacing" textLength="231.0068" x="1353.72" y="450.0732">last_updated_date : timestamptz</text><line style="stroke:#181818;stroke-width:1;stroke-dasharray:1,2;" x1="1348.72" x2="1457.0554" y1="380.0391" y2="380.0391"/><text fill="#000000" font-family="sans-serif" font-size="14" lengthAdjust="spacing" textLength="37.502" x="1457.0554" y="384.3857">fields</text><line style="stroke:#181818;stroke-width:1;stroke-dasharray:1,2;" x1="1494.5574" x2="1602.8929" y1="380.0391" y2="380.0391"/></g><!--class reviews--><g class="entity" data-qualified-name="reviews" data-source-line="24" id="ent0004"><rect fill="#F1F1F1" height="214.9688" rx="2.5" ry="2.5" style="stroke:#181818;stroke-width:0.5;" width="243.0068" x="367.22" y="542.2969"/><ellipse cx="457.5227" cy="558.2969" fill="#ADD1B2" rx="11" ry="11" style="stroke:#181818;stroke-width:1;"/><path d="M461.6321,564.2969 L453.9134,564.2969 L453.9134,551.9063 L461.6321,551.9063 L461.6321,554.0625 L456.3665,554.0625 L456.3665,556.7344 L461.1321,556.7344 L461.1321,558.8906 L456.3665,558.8906 L456.3665,562.1406 L461.6321,562.1406 L461.6321,564.2969 Z " fill="#000000"/><text fill="#000000" font-family="sans-serif" font-size="14" lengthAdjust="spacing" textLength="53.9014" x="478.0227" y="563.1436">reviews</text><line style="stroke:#181818;stroke-width:0.5;" x1="368.22" x2="609.2268" y1="574.2969" y2="574.2969"/><text fill="#000000" font-family="sans-serif" font-size="14" lengthAdjust="spacing" textLength="130.1221" x="373.22" y="611.5889">review_id : integer</text><line style="stroke:#181818;stroke-width:1;stroke-dasharray:1,2;" x1="368.22" x2="479.9119" y1="590.4453" y2="590.4453"/><text fill="#000000" font-family="sans-serif" font-size="14" lengthAdjust="spacing" textLength="17.623" x="479.9119" y="594.792">PK</text><line style="stroke:#181818;stroke-width:1;stroke-dasharray:1,2;" x1="497.5349" x2="609.2268" y1="590.4453" y2="590.4453"/><text fill="#000000" font-family="sans-serif" font-size="14" lengthAdjust="spacing" textLength="114.0508" x="373.22" y="648.1826">user_id : integer</text><text fill="#000000" font-family="sans-serif" font-size="14" lengthAdjust="spacing" textLength="152.6191" x="373.22" y="664.4795">employee_id : integer</text><line style="stroke:#181818;stroke-width:1;stroke-dasharray:1,2;" x1="368.22" x2="480.1067" y1="627.0391" y2="627.0391"/><text fill="#000000" font-family="sans-serif" font-size="14" lengthAdjust="spacing" textLength="17.2334" x="480.1067" y="631.3857">FK</text><line style="stroke:#181818;stroke-width:1;stroke-dasharray:1,2;" x1="497.3401" x2="609.2268" y1="627.0391" y2="627.0391"/><text fill="#000000" font-family="sans-serif" font-size="14" lengthAdjust="spacing" textLength="148.873" x="373.22" y="701.0732">rating : smallint (1-5)</text><text fill="#000000" font-family="sans-serif" font-size="14" lengthAdjust="spacing" textLength="115.3018" x="373.22" y="717.3701">comments : text</text><text fill="#000000" font-family="sans-serif" font-size="14" lengthAdjust="spacing" textLength="194.1748" x="373.22" y="733.667">created_date : timestamptz</text><text fill="#000000" font-family="sans-serif" font-size="14" lengthAdjust="spacing" textLength="231.0068" x="373.22" y="749.9639">last_updated_date : timestamptz</text><line style="stroke:#181818;stroke-width:1;stroke-dasharray:1,2;" x1="368.22" x2="469.9724" y1="679.9297" y2="679.9297"/><text fill="#000000" font-family="sans-serif" font-size="14" lengthAdjust="spacing" textLength="37.502" x="469.9724" y="684.2764">fields</text><line style="stroke:#181818;stroke-width:1;stroke-dasharray:1,2;" x1="507.4744" x2="609.2268" y1="679.9297" y2="679.9297"/></g><!--class tags--><g class="entity" data-qualified-name="tags" data-source-line="37" id="ent0005"><rect fill="#F1F1F1" height="182.375" rx="2.5" ry="2.5" style="stroke:#181818;stroke-width:0.5;" width="535.7354" x="758.22" y="558.2969"/><ellipse cx="1006.7132" cy="574.2969" fill="#ADD1B2" rx="11" ry="11" style="stroke:#181818;stroke-width:1;"/><path d="M1010.8225,580.2969 L1003.1038,580.2969 L1003.1038,567.9063 L1010.8225,567.9063 L1010.8225,570.0625 L1005.5569,570.0625 L1005.5569,572.7344 L1010.3225,572.7344 L1010.3225,574.8906 L1005.5569,574.8906 L1005.5569,578.1406 L1010.8225,578.1406 L1010.8225,580.2969 Z " fill="#000000"/><text fill="#000000" font-family="sans-serif" font-size="14" lengthAdjust="spacing" textLength="30.249" x="1027.2132" y="579.1436">tags</text><line style="stroke:#181818;stroke-width:0.5;" x1="759.22" x2="1292.9554" y1="590.2969" y2="590.2969"/><text fill="#000000" font-family="sans-serif" font-size="14" lengthAdjust="spacing" textLength="113.7637" x="764.22" y="627.5889">tags_id : integer</text><line style="stroke:#181818;stroke-width:1;stroke-dasharray:1,2;" x1="759.22" x2="1017.2762" y1="606.4453" y2="606.4453"/><text fill="#000000" font-family="sans-serif" font-size="14" lengthAdjust="spacing" textLength="17.623" x="1017.2762" y="610.792">PK</text><line style="stroke:#181818;stroke-width:1;stroke-dasharray:1,2;" x1="1034.8992" x2="1292.9554" y1="606.4453" y2="606.4453"/><text fill="#000000" font-family="sans-serif" font-size="14" lengthAdjust="spacing" textLength="130.1221" x="764.22" y="664.1826">review_id : integer</text><line style="stroke:#181818;stroke-width:1;stroke-dasharray:1,2;" x1="759.22" x2="1017.471" y1="643.0391" y2="643.0391"/><text fill="#000000" font-family="sans-serif" font-size="14" lengthAdjust="spacing" textLength="17.2334" x="1017.471" y="647.3857">FK</text><line style="stroke:#181818;stroke-width:1;stroke-dasharray:1,2;" x1="1034.7044" x2="1292.9554" y1="643.0391" y2="643.0391"/><text fill="#000000" font-family="sans-serif" font-size="14" lengthAdjust="spacing" textLength="523.7354" x="764.22" y="700.7764">tag_name : enum ["Lots of Questions", "Slow Replies", "Approachable", ...]</text><text fill="#000000" font-family="sans-serif" font-size="14" lengthAdjust="spacing" textLength="194.1748" x="764.22" y="717.0732">created_date : timestamptz</text><text fill="#000000" font-family="sans-serif" font-size="14" lengthAdjust="spacing" textLength="231.0068" x="764.22" y="733.3701">last_updated_date : timestamptz</text><line style="stroke:#181818;stroke-width:1;stroke-dasharray:1,2;" x1="759.22" x2="1007.3367" y1="679.6328" y2="679.6328"/><text fill="#000000" font-family="sans-serif" font-size="14" lengthAdjust="spacing" textLength="37.502" x="1007.3367" y="683.9795">fields</text><line style="stroke:#181818;stroke-width:1;stroke-dasharray:1,2;" x1="1044.8387" x2="1292.9554" y1="679.6328" y2="679.6328"/></g><!--class flags--><g class="entity" data-qualified-name="flags" data-source-line="48" id="ent0006"><rect fill="#F1F1F1" height="231.2656" rx="2.5" ry="2.5" style="stroke:#181818;stroke-width:0.5;" width="491.0762" x="80.22" y="825.2969"/><ellipse cx="304.719" cy="841.2969" fill="#ADD1B2" rx="11" ry="11" style="stroke:#181818;stroke-width:1;"/><path d="M308.8284,847.2969 L301.1096,847.2969 L301.1096,834.9063 L308.8284,834.9063 L308.8284,837.0625 L303.5628,837.0625 L303.5628,839.7344 L308.3284,839.7344 L308.3284,841.8906 L303.5628,841.8906 L303.5628,845.1406 L308.8284,845.1406 L308.8284,847.2969 Z " fill="#000000"/><text fill="#000000" font-family="sans-serif" font-size="14" lengthAdjust="spacing" textLength="33.5781" x="325.219" y="846.1436">flags</text><line style="stroke:#181818;stroke-width:0.5;" x1="81.22" x2="570.2962" y1="857.2969" y2="857.2969"/><text fill="#000000" font-family="sans-serif" font-size="14" lengthAdjust="spacing" textLength="105.3486" x="86.22" y="894.5889">flag_id: integer</text><line style="stroke:#181818;stroke-width:1;stroke-dasharray:1,2;" x1="81.22" x2="316.9466" y1="873.4453" y2="873.4453"/><text fill="#000000" font-family="sans-serif" font-size="14" lengthAdjust="spacing" textLength="17.623" x="316.9466" y="877.792">PK</text><line style="stroke:#181818;stroke-width:1;stroke-dasharray:1,2;" x1="334.5696" x2="570.2962" y1="873.4453" y2="873.4453"/><text fill="#000000" font-family="sans-serif" font-size="14" lengthAdjust="spacing" textLength="114.0508" x="86.22" y="931.1826">user_id : integer</text><text fill="#000000" font-family="sans-serif" font-size="14" lengthAdjust="spacing" textLength="130.1221" x="86.22" y="947.4795">review_id : integer</text><line style="stroke:#181818;stroke-width:1;stroke-dasharray:1,2;" x1="81.22" x2="317.1414" y1="910.0391" y2="910.0391"/><text fill="#000000" font-family="sans-serif" font-size="14" lengthAdjust="spacing" textLength="17.2334" x="317.1414" y="914.3857">FK</text><line style="stroke:#181818;stroke-width:1;stroke-dasharray:1,2;" x1="334.3748" x2="570.2962" y1="910.0391" y2="910.0391"/><text fill="#000000" font-family="sans-serif" font-size="14" lengthAdjust="spacing" textLength="479.0762" x="86.22" y="984.0732">reason : enum ["BAD PHOTO", "INAPPROPRAITE TEXT", "OTHER", ...]</text><text fill="#000000" font-family="sans-serif" font-size="14" lengthAdjust="spacing" textLength="129.0215" x="86.22" y="1000.3701">reason_other: text</text><text fill="#000000" font-family="sans-serif" font-size="14" lengthAdjust="spacing" textLength="125.3574" x="86.22" y="1016.667">status : enum [...]</text><text fill="#000000" font-family="sans-serif" font-size="14" lengthAdjust="spacing" textLength="194.1748" x="86.22" y="1032.9639">created_date : timestamptz</text><text fill="#000000" font-family="sans-serif" font-size="14" lengthAdjust="spacing" textLength="231.0068" x="86.22" y="1049.2607">last_updated_date : timestamptz</text><line style="stroke:#181818;stroke-width:1;stroke-dasharray:1,2;" x1="81.22" x2="307.0071" y1="962.9297" y2="962.9297"/><text fill="#000000" font-family="sans-serif" font-size="14" lengthAdjust="spacing" textLength="37.502" x="307.0071" y="967.2764">fields</text><line style="stroke:#181818;stroke-width:1;stroke-dasharray:1,2;" x1="344.5091" x2="570.2962" y1="962.9297" y2="962.9297"/></g><!--class employee_to_company_mapping--><g class="entity" data-qualified-name="employee_to_company_mapping" data-source-line="62" id="ent0007"><rect fill="#F1F1F1" height="194.6719" rx="2.5" ry="2.5" style="stroke:#181818;stroke-width:0.5;" width="262.3232" x="1344.72" y="552.2969"/><ellipse cx="1359.72" cy="568.2969" fill="#ADD1B2" rx="11" ry="11" style="stroke:#181818;stroke-width:1;"/><path d="M1363.8294,574.2969 L1356.1106,574.2969 L1356.1106,561.9063 L1363.8294,561.9063 L1363.8294,564.0625 L1358.5638,564.0625 L1358.5638,566.7344 L1363.3294,566.7344 L1363.3294,568.8906 L1358.5638,568.8906 L1358.5638,572.1406 L1363.8294,572.1406 L1363.8294,574.2969 Z " fill="#000000"/><text fill="#000000" font-family="sans-serif" font-size="14" lengthAdjust="spacing" textLength="230.3232" x="1373.72" y="573.1436">employee_to_company_mapping</text><line style="stroke:#181818;stroke-width:0.5;" x1="1345.72" x2="1606.0432" y1="584.2969" y2="584.2969"/><text fill="#000000" font-family="sans-serif" font-size="14" lengthAdjust="spacing" textLength="152.6191" x="1350.72" y="621.5889">employee_id : integer</text><text fill="#000000" font-family="sans-serif" font-size="14" lengthAdjust="spacing" textLength="148.0391" x="1350.72" y="637.8857">company_id : integer</text><line style="stroke:#181818;stroke-width:1;stroke-dasharray:1,2;" x1="1345.72" x2="1455.2337" y1="600.4453" y2="600.4453"/><text fill="#000000" font-family="sans-serif" font-size="14" lengthAdjust="spacing" textLength="41.2959" x="1455.2337" y="604.792">PK/CK</text><line style="stroke:#181818;stroke-width:1;stroke-dasharray:1,2;" x1="1496.5296" x2="1606.0432" y1="600.4453" y2="600.4453"/><text fill="#000000" font-family="sans-serif" font-size="14" lengthAdjust="spacing" textLength="130.3271" x="1350.72" y="674.4795">is_active : boolean</text><text fill="#000000" font-family="sans-serif" font-size="14" lengthAdjust="spacing" textLength="116.3613" x="1350.72" y="690.7764">start_date : date</text><text fill="#000000" font-family="sans-serif" font-size="14" lengthAdjust="spacing" textLength="231.6904" x="1350.72" y="707.0732">end_date : date or text "Current"</text><text fill="#000000" font-family="sans-serif" font-size="14" lengthAdjust="spacing" textLength="194.1748" x="1350.72" y="723.3701">created_date : timestamptz</text><text fill="#000000" font-family="sans-serif" font-size="14" lengthAdjust="spacing" textLength="231.0068" x="1350.72" y="739.667">last_updated_date : timestamptz</text><line style="stroke:#181818;stroke-width:1;stroke-dasharray:1,2;" x1="1345.72" x2="1457.1306" y1="653.3359" y2="653.3359"/><text fill="#000000" font-family="sans-serif" font-size="14" lengthAdjust="spacing" textLength="37.502" x="1457.1306" y="657.6826">fields</text><line style="stroke:#181818;stroke-width:1;stroke-dasharray:1,2;" x1="1494.6326" x2="1606.0432" y1="653.3359" y2="653.3359"/></g><!--class employees--><g class="entity" data-qualified-name="employees" data-source-line="74" id="ent0008"><rect fill="#F1F1F1" height="194.6719" rx="2.5" ry="2.5" style="stroke:#181818;stroke-width:0.5;" width="308.29" x="769.72" y="279.2969"/><ellipse cx="881.4158" cy="295.2969" fill="#ADD1B2" rx="11" ry="11" style="stroke:#181818;stroke-width:1;"/><path d="M885.5252,301.2969 L877.8064,301.2969 L877.8064,288.9063 L885.5252,288.9063 L885.5252,291.0625 L880.2596,291.0625 L880.2596,293.7344 L885.0252,293.7344 L885.0252,295.8906 L880.2596,295.8906 L880.2596,299.1406 L885.5252,299.1406 L885.5252,301.2969 Z " fill="#000000"/><text fill="#000000" font-family="sans-serif" font-size="14" lengthAdjust="spacing" textLength="76.3984" x="901.9158" y="300.1436">employees</text><line style="stroke:#181818;stroke-width:0.5;" x1="770.72" x2="1077.01" y1="311.2969" y2="311.2969"/><text fill="#000000" font-family="sans-serif" font-size="14" lengthAdjust="spacing" textLength="152.6191" x="775.72" y="348.5889">employee_id : integer</text><line style="stroke:#181818;stroke-width:1;stroke-dasharray:1,2;" x1="770.72" x2="915.0535" y1="327.4453" y2="327.4453"/><text fill="#000000" font-family="sans-serif" font-size="14" lengthAdjust="spacing" textLength="17.623" x="915.0535" y="331.792">PK</text><line style="stroke:#181818;stroke-width:1;stroke-dasharray:1,2;" x1="932.6765" x2="1077.01" y1="327.4453" y2="327.4453"/><text fill="#000000" font-family="sans-serif" font-size="14" lengthAdjust="spacing" textLength="157.3018" x="775.72" y="385.1826">employee_name : text</text><text fill="#000000" font-family="sans-serif" font-size="14" lengthAdjust="spacing" textLength="200.4707" x="775.72" y="401.4795">experience_level : enum [...]</text><text fill="#000000" font-family="sans-serif" font-size="14" lengthAdjust="spacing" textLength="160.2617" x="775.72" y="417.7764">role : enum [...] or text</text><text fill="#000000" font-family="sans-serif" font-size="14" lengthAdjust="spacing" textLength="296.29" x="775.72" y="434.0732">profile_picture (optional) : text (image url)</text><text fill="#000000" font-family="sans-serif" font-size="14" lengthAdjust="spacing" textLength="194.1748" x="775.72" y="450.3701">created_date : timestamptz</text><text fill="#000000" font-family="sans-serif" font-size="14" lengthAdjust="spacing" textLength="231.0068" x="775.72" y="466.667">last_updated_date : timestamptz</text><line style="stroke:#181818;stroke-width:1;stroke-dasharray:1,2;" x1="770.72" x2="905.114" y1="364.0391" y2="364.0391"/><text fill="#000000" font-family="sans-serif" font-size="14" lengthAdjust="spacing" textLength="37.502" x="905.114" y="368.3857">fields</text><line style="stroke:#181818;stroke-width:1;stroke-dasharray:1,2;" x1="942.616" x2="1077.01" y1="364.0391" y2="364.0391"/></g><!--class recruiters--><g class="entity" data-qualified-name="recruiters" data-source-line="86" id="ent0009"><rect fill="#F1F1F1" height="166.0781" rx="2.5" ry="2.5" style="stroke:#181818;stroke-width:0.5;" width="243.0068" x="949.22" y="44.2969"/><ellipse cx="1032.6048" cy="60.2969" fill="#ADD1B2" rx="11" ry="11" style="stroke:#181818;stroke-width:1;"/><path d="M1036.7141,66.2969 L1028.9954,66.2969 L1028.9954,53.9063 L1036.7141,53.9063 L1036.7141,56.0625 L1031.4485,56.0625 L1031.4485,58.7344 L1036.2141,58.7344 L1036.2141,60.8906 L1031.4485,60.8906 L1031.4485,64.1406 L1036.7141,64.1406 L1036.7141,66.2969 Z " fill="#000000"/><text fill="#000000" font-family="sans-serif" font-size="14" lengthAdjust="spacing" textLength="67.7373" x="1053.1048" y="65.1436">recruiters</text><line style="stroke:#181818;stroke-width:0.5;" x1="950.22" x2="1191.2268" y1="76.2969" y2="76.2969"/><text fill="#000000" font-family="sans-serif" font-size="14" lengthAdjust="spacing" textLength="143.958" x="955.22" y="113.5889">recruiter_id : integer</text><line style="stroke:#181818;stroke-width:1;stroke-dasharray:1,2;" x1="950.22" x2="1061.9119" y1="92.4453" y2="92.4453"/><text fill="#000000" font-family="sans-serif" font-size="14" lengthAdjust="spacing" textLength="17.623" x="1061.9119" y="96.792">PK</text><line style="stroke:#181818;stroke-width:1;stroke-dasharray:1,2;" x1="1079.5349" x2="1191.2268" y1="92.4453" y2="92.4453"/><text fill="#000000" font-family="sans-serif" font-size="14" lengthAdjust="spacing" textLength="152.6191" x="955.22" y="150.1826">employee_id : integer</text><line style="stroke:#181818;stroke-width:1;stroke-dasharray:1,2;" x1="950.22" x2="1062.1067" y1="129.0391" y2="129.0391"/><text fill="#000000" font-family="sans-serif" font-size="14" lengthAdjust="spacing" textLength="17.2334" x="1062.1067" y="133.3857">FK</text><line style="stroke:#181818;stroke-width:1;stroke-dasharray:1,2;" x1="1079.3401" x2="1191.2268" y1="129.0391" y2="129.0391"/><text fill="#000000" font-family="sans-serif" font-size="14" lengthAdjust="spacing" textLength="194.1748" x="955.22" y="186.7764">created_date : timestamptz</text><text fill="#000000" font-family="sans-serif" font-size="14" lengthAdjust="spacing" textLength="231.0068" x="955.22" y="203.0732">last_updated_date : timestamptz</text><line style="stroke:#181818;stroke-width:1;stroke-dasharray:1,2;" x1="950.22" x2="1051.9724" y1="165.6328" y2="165.6328"/><text fill="#000000" font-family="sans-serif" font-size="14" lengthAdjust="spacing" textLength="37.502" x="1051.9724" y="169.9795">fields</text><line style="stroke:#181818;stroke-width:1;stroke-dasharray:1,2;" x1="1089.4744" x2="1191.2268" y1="165.6328" y2="165.6328"/></g><!--class interviewers--><g class="entity" data-qualified-name="interviewers" data-source-line="96" id="ent0010"><rect fill="#F1F1F1" height="166.0781" rx="2.5" ry="2.5" style="stroke:#181818;stroke-width:0.5;" width="243.0068" x="655.22" y="44.2969"/><ellipse cx="729.2122" cy="60.2969" fill="#ADD1B2" rx="11" ry="11" style="stroke:#181818;stroke-width:1;"/><path d="M733.3216,66.2969 L725.6028,66.2969 L725.6028,53.9063 L733.3216,53.9063 L733.3216,56.0625 L728.0559,56.0625 L728.0559,58.7344 L732.8216,58.7344 L732.8216,60.8906 L728.0559,60.8906 L728.0559,64.1406 L733.3216,64.1406 L733.3216,66.2969 Z " fill="#000000"/><text fill="#000000" font-family="sans-serif" font-size="14" lengthAdjust="spacing" textLength="86.5225" x="749.7122" y="65.1436">interviewers</text><line style="stroke:#181818;stroke-width:0.5;" x1="656.22" x2="897.2268" y1="76.2969" y2="76.2969"/><text fill="#000000" font-family="sans-serif" font-size="14" lengthAdjust="spacing" textLength="162.7432" x="661.22" y="113.5889">interviewer_id : integer</text><line style="stroke:#181818;stroke-width:1;stroke-dasharray:1,2;" x1="656.22" x2="767.9119" y1="92.4453" y2="92.4453"/><text fill="#000000" font-family="sans-serif" font-size="14" lengthAdjust="spacing" textLength="17.623" x="767.9119" y="96.792">PK</text><line style="stroke:#181818;stroke-width:1;stroke-dasharray:1,2;" x1="785.5349" x2="897.2268" y1="92.4453" y2="92.4453"/><text fill="#000000" font-family="sans-serif" font-size="14" lengthAdjust="spacing" textLength="152.6191" x="661.22" y="150.1826">employee_id : integer</text><line style="stroke:#181818;stroke-width:1;stroke-dasharray:1,2;" x1="656.22" x2="768.1067" y1="129.0391" y2="129.0391"/><text fill="#000000" font-family="sans-serif" font-size="14" lengthAdjust="spacing" textLength="17.2334" x="768.1067" y="133.3857">FK</text><line style="stroke:#181818;stroke-width:1;stroke-dasharray:1,2;" x1="785.3401" x2="897.2268" y1="129.0391" y2="129.0391"/><text fill="#000000" font-family="sans-serif" font-size="14" lengthAdjust="spacing" textLength="194.1748" x="661.22" y="186.7764">created_date : timestamptz</text><text fill="#000000" font-family="sans-serif" font-size="14" lengthAdjust="spacing" textLength="231.0068" x="661.22" y="203.0732">last_updated_date : timestamptz</text><line style="stroke:#181818;stroke-width:1;stroke-dasharray:1,2;" x1="656.22" x2="757.9724" y1="165.6328" y2="165.6328"/><text fill="#000000" font-family="sans-serif" font-size="14" lengthAdjust="spacing" textLength="37.502" x="757.9724" y="169.9795">fields</text><line style="stroke:#181818;stroke-width:1;stroke-dasharray:1,2;" x1="795.4744" x2="897.2268" y1="165.6328" y2="165.6328"/></g><!--link employees to employee_to_company_mapping--><g class="link" data-entity-1="ent0008" data-entity-2="ent0007" data-link-type="dependency" data-source-line="108" id="lnk11"><path codeLine="108" d="M1078.72,343.2969 C1216.16,343.2969 1241.19,424.8169 1318.72,538.2969 C1339.25,568.3569 1301.31,616.2969 1337.72,616.2969" fill="none" id="employees-to-employee_to_company_mapping" style="stroke:#181818;stroke-width:1;"/><polygon fill="#181818" points="1343.72,616.2969,1334.72,612.2969,1338.72,616.2969,1334.72,620.2969,1343.72,616.2969" style="stroke:#181818;stroke-width:1;"/></g><!--link companies to employee_to_company_mapping--><g class="link" data-entity-1="ent0003" data-entity-2="ent0007" data-link-type="dependency" data-source-line="109" id="lnk12"><path codeLine="109" d="M1604.72,359.2969 C1665.39,359.2969 1674.39,632.2969 1613.72,632.2969" fill="none" id="companies-to-employee_to_company_mapping" style="stroke:#181818;stroke-width:1;"/><polygon fill="#181818" points="1607.72,632.2969,1616.72,636.2969,1612.72,632.2969,1616.72,628.2969,1607.72,632.2969" style="stroke:#181818;stroke-width:1;"/></g><!--link users to reviews--><g class="link" data-entity-1="ent0002" data-entity-2="ent0004" data-link-type="crowfoot" data-source-line="110" id="lnk13"><path codeLine="110" d="M510.72,351.2969 C563.16,351.2969 529.28,424.6769 501.72,469.2969 C466.3,526.6269 402.17,480.9869 366.72,538.2969 C342.4,577.6069 301.49,642.2969 347.72,642.2969" fill="none" id="users-reviews" style="stroke:#181818;stroke-width:1;"/><line style="stroke:#181818;stroke-width:1;" x1="506.72" x2="506.72" y1="355.2969" y2="347.2969"/><line style="stroke:#181818;stroke-width:1;" x1="509.72" x2="509.72" y1="355.2969" y2="347.2969"/><line style="stroke:#181818;stroke-width:1;" x1="510.72" x2="502.72" y1="351.2969" y2="351.2969"/><line style="stroke:#181818;stroke-width:1;" x1="357.72" x2="365.72" y1="642.2969" y2="636.2969"/><line style="stroke:#181818;stroke-width:1;" x1="357.72" x2="365.72" y1="642.2969" y2="648.2969"/><line style="stroke:#181818;stroke-width:1;" x1="357.72" x2="365.72" y1="642.2969" y2="642.2969"/><ellipse cx="351.72" cy="642.2969" fill="none" rx="4" ry="4" style="stroke:#181818;stroke-width:1;"/></g><!--link employees to reviews--><g class="link" data-entity-1="ent0008" data-entity-2="ent0004" data-link-type="crowfoot" data-source-line="111" id="lnk14"><path codeLine="111" d="M760.72,343.2969 C603.89,343.2969 786.54,659.2969 629.72,659.2969" fill="none" id="employees-reviews" style="stroke:#181818;stroke-width:1;"/><line style="stroke:#181818;stroke-width:1;" x1="764.72" x2="764.72" y1="339.2969" y2="347.2969"/><line style="stroke:#181818;stroke-width:1;" x1="761.72" x2="761.72" y1="339.2969" y2="347.2969"/><line style="stroke:#181818;stroke-width:1;" x1="760.72" x2="768.72" y1="343.2969" y2="343.2969"/><line style="stroke:#181818;stroke-width:1;" x1="619.72" x2="611.72" y1="659.2969" y2="665.2969"/><line style="stroke:#181818;stroke-width:1;" x1="619.72" x2="611.72" y1="659.2969" y2="653.2969"/><line style="stroke:#181818;stroke-width:1;" x1="619.72" x2="611.72" y1="659.2969" y2="659.2969"/><ellipse cx="625.72" cy="659.2969" fill="none" rx="4" ry="4" style="stroke:#181818;stroke-width:1;"/></g><!--link users to flags--><g class="link" data-entity-1="ent0002" data-entity-2="ent0006" data-link-type="dependency" data-source-line="112" id="lnk15"><path codeLine="112" d="M256.72,351.2969 C190,351.2969 6,924.7969 72.72,924.7969" fill="none" id="users-to-flags" style="stroke:#181818;stroke-width:1;"/><polygon fill="#181818" points="78.72,924.7969,69.72,920.7969,73.72,924.7969,69.72,928.7969,78.72,924.7969" style="stroke:#181818;stroke-width:1;"/></g><!--link reviews to flags--><g class="link" data-entity-1="ent0004" data-entity-2="ent0006" data-link-type="crowfoot" data-source-line="113" id="lnk16"><path codeLine="113" d="M357.72,606.2969 C323.5,606.2969 346.17,732.9269 366.72,760.2969 C423.79,836.3169 514.58,745.3269 571.72,821.2969 C604.18,864.4569 644.72,942.7969 590.72,942.7969" fill="none" id="reviews-flags" style="stroke:#181818;stroke-width:1;"/><line style="stroke:#181818;stroke-width:1;" x1="361.72" x2="361.72" y1="602.2969" y2="610.2969"/><line style="stroke:#181818;stroke-width:1;" x1="358.72" x2="358.72" y1="602.2969" y2="610.2969"/><line style="stroke:#181818;stroke-width:1;" x1="357.72" x2="365.72" y1="606.2969" y2="606.2969"/><line style="stroke:#181818;stroke-width:1;" x1="580.72" x2="572.72" y1="942.7969" y2="948.7969"/><line style="stroke:#181818;stroke-width:1;" x1="580.72" x2="572.72" y1="942.7969" y2="936.7969"/><line style="stroke:#181818;stroke-width:1;" x1="580.72" x2="572.72" y1="942.7969" y2="942.7969"/><ellipse cx="586.72" cy="942.7969" fill="none" rx="4" ry="4" style="stroke:#181818;stroke-width:1;"/></g><!--reverse link recruiters to employees--><g class="link" data-entity-1="ent0009" data-entity-2="ent0008" data-link-type="dependency" data-source-line="114" id="lnk18"><path codeLine="114" d="M1199.72,144.2969 C1301.87,144.2969 1180.87,343.2969 1078.72,343.2969" fill="none" id="recruiters-backto-employees" style="stroke:#181818;stroke-width:1;"/><polygon fill="#181818" points="1193.72,144.2969,1202.72,148.2969,1198.72,144.2969,1202.72,140.2969,1193.72,144.2969" style="stroke:#181818;stroke-width:1;"/></g><!--reverse link interviewers to employees--><g class="link" data-entity-1="ent0010" data-entity-2="ent0008" data-link-type="dependency" data-source-line="115" id="lnk20"><path codeLine="115" d="M905.72,144.2969 C936.83,144.2969 915.55,188.1269 898.72,214.2969 C864.4,267.6369 804.04,221.9669 769.72,275.2969 C753.36,300.7169 738.49,343.2969 768.72,343.2969" fill="none" id="interviewers-backto-employees" style="stroke:#181818;stroke-width:1;"/><polygon fill="#181818" points="899.72,144.2969,908.72,148.2969,904.72,144.2969,908.72,140.2969,899.72,144.2969" style="stroke:#181818;stroke-width:1;"/></g><!--link reviews to tags--><g class="link" data-entity-1="ent0004" data-entity-2="ent0005" data-link-type="crowfoot" data-source-line="116" id="lnk21"><path codeLine="116" d="M619.72,606.2969 C659.4,606.2969 604.11,668.3069 635.72,692.2969 C670.06,718.3669 694.44,712.1269 732.72,692.2969 C749.14,683.7869 720.22,658.2969 738.72,658.2969" fill="none" id="reviews-tags" style="stroke:#181818;stroke-width:1;"/><line style="stroke:#181818;stroke-width:1;" x1="615.72" x2="615.72" y1="610.2969" y2="602.2969"/><line style="stroke:#181818;stroke-width:1;" x1="618.72" x2="618.72" y1="610.2969" y2="602.2969"/><line style="stroke:#181818;stroke-width:1;" x1="619.72" x2="611.72" y1="606.2969" y2="606.2969"/><line style="stroke:#181818;stroke-width:1;" x1="748.72" x2="756.72" y1="658.2969" y2="652.2969"/><line style="stroke:#181818;stroke-width:1;" x1="748.72" x2="756.72" y1="658.2969" y2="664.2969"/><line style="stroke:#181818;stroke-width:1;" x1="748.72" x2="756.72" y1="658.2969" y2="658.2969"/><ellipse cx="742.72" cy="658.2969" fill="none" rx="4" ry="4" style="stroke:#181818;stroke-width:1;"/><text fill="#000000" font-family="sans-serif" font-size="13" lengthAdjust="spacing" textLength="95.0435" x="636.72" y="688.3638">.                     .</text><text fill="#000000" font-family="sans-serif" font-size="13" lengthAdjust="spacing" textLength="21.2329" x="712.0836" y="655.4004">0-3</text></g><?plantuml-src nLPDZzem4BtdLunowQvKqbPLBpbKeWiLgDib1IfLggh8X25OScBBTlQZk_lVQnFY10WibL8rXv2CdoVlpPVHL3E42572b6XSme1eiY0AOO2AfZby_thjUPXhgX-WK2WLF7e0GG3H5tCtZzOOqoM4G7EDASfoUKMHBLK9INYM6HVAO3JUw-scd6HOMp0ZbDMlYKHB9rwQkxNI39KccT2_pI8ZIiU5M1v3F3l6vik2v1GFM9SB3oyGtwNuk5bwTdi5JNGXAm1Sq8oa28Labzq9a7XByUw0VcbkOV_vH5Om4um_8BuWkf8fYQPvQf0g8umPE5oywtsuRCrdHserIG-aMji9eKSZqPHaVCJRN69UPF3Jl-Q6Fb_1jyBGe3nN_clmPupVmHG5CmLZt_j2I4wIDLamDEz14FpgJkkAjOYrHgFbBv9wbdx3MF6yLl-fFu1eD9bFhChnJJ-AffDesX_FXp0V_fXRwsG-6avhqQM7cEirIfTr8qeNohdjDZwkMZMFguxBY12s9btKtbnjGtEiji_hSwfYacXwQzaiE6T8ybAUr1L9-sE_ao-R5k2oR7x_gf3ICFUx3y11aPpPnmwsDsZl1KgAUO8nmrja--cJHlwEhTBO60scBLQKePk05rpO9YBiyXyFmqGMLBSSGcxbnAGuCsmTSRN-fMtD5hQDjV_Frti5q-5rVpwUtCn6usZckReBmoQ5Nk_ZgPxS0Nlkt0t3HWU-wAB6Ufl_6c5OZRodfrwFFrR7eRCV8xiFRtBRysn9RMPnxTHjguVhrk4MwEn7WrK8uxQkrrq69pSr2sTtMpijITErjjpyjxttO2v_SsGsKI44q7O5Vm00?></g></svg>